<svg xmlns="http://www.w3.org/2000/svg" xmlns:xlink="http://www.w3.org/1999/xlink"><symbol id="icon-croix" viewBox="0 0 31.112 31.112"><path d="M31.112 1.414L29.698 0 15.556 14.142 1.414 0 0 1.414l14.142 14.142L0 29.698l1.414 1.414L15.556 16.97l14.142 14.142 1.414-1.414L16.97 15.556z"/></symbol><symbol id="icon-fb" viewBox="0 0 25.6 25.6"><g overflow="visible" fill-rule="evenodd" stroke-width=".501" stroke-linejoin="bevel"><script/><script/><path d="M11.922 25.08v-9.93h-1.8a.4.4 0 01-.401-.4v-2.974c0-.263.2-.394.4-.396h1.802V9.778c0-.843.01-2.36.8-3.328.797-.987 1.902-1.647 3.728-1.647 2.811 0 4.023.375 4.067.389a.402.402 0 01.273.452L20.24 8.69a.402.401 0 01-.498.316c.003 0-.87-.235-1.67-.235-.487 0-1.225.104-1.225.685v1.92h3.112a.4.4 0 01.397.433l-.243 2.973a.399.399 0 01-.397.367h-2.869v9.93a.401.4 0 01-.4.4h-4.126a.4.4 0 01-.4-.4zm4.125-.4v-9.93c0-.22.18-.4.4-.4h2.9l.177-2.174h-3.077a.4.4 0 01-.4-.4v-2.32c0-.558.283-.955.692-1.19.385-.22.87-.295 1.333-.295.456 0 .925.066 1.28.131l.174.035.408-2.26-.128-.026c-.56-.104-1.644-.248-3.356-.248-1.582 0-2.46.552-3.108 1.352-.579.71-.62 1.913-.62 2.824v2a.401.4 0 01-.4.4h-1.801v2.17h1.8c.22 0 .4.18.4.4v9.93h3.326z"/><path d="M0 23.262V2.338A2.34 2.34 0 012.338 0h20.924A2.341 2.34 0 0125.6 2.338v20.924a2.34 2.34 0 01-2.338 2.338H2.338A2.34 2.338 0 010 23.262zm24.8 0V2.338A1.542 1.541 0 0023.262.8H2.338A1.541 1.54 0 00.8 2.338v20.924A1.54 1.54 0 002.338 24.8h20.924a1.541 1.54 0 001.538-1.538z"/></g></symbol><symbol id="icon-github" viewBox="0 0 25.6 25.6"><g overflow="visible" fill-rule="evenodd" stroke-width=".501" stroke-linejoin="bevel"><script/><script/><path d="M15.069 22.27a.794.794 0 01-.152-.125.895.895 0 01-.235-.616c0-.31.01-1.326.01-2.587 0-.797-.265-1.249-.489-1.447a.401.4 0 01.218-.697c1.931-.225 3.843-.903 3.843-4.261 0-.929-.32-1.677-.844-2.262a.402.402 0 01-.073-.416c.062-.157.292-.829.045-1.781l-.061-.186c-.301.026-.948.18-2.002.912a.395.394 0 01-.337.057 8.197 8.195 0 00-4.378 0 .397.397 0 01-.337-.056c-1.057-.732-1.704-.887-2.002-.913l-.06.186c-.245.952-.017 1.626.046 1.784a.401.4 0 01-.075.412c-.522.586-.843 1.335-.843 2.263 0 3.335 1.894 4.04 3.83 4.271a.4.4 0 01.218.697c-.176.156-.378.476-.45 1.01a.4.4 0 01-.227.308c-.556.261-2.2.796-3.196-.95a1.853 1.853 0 00-.288-.37l.188.268c.13.202.258.451.381.777-.023-.085.39 1.485 2.628.986a.399.399 0 01.487.388c.002.77.013 1.4.013 1.607a.902.902 0 01-.27.647l-.089.074c-.211.145-.47.18-.743.129l-.055-.016c-3.81-1.302-6.552-4.994-6.552-9.334 0-5.416 4.28-9.827 9.582-9.827 5.302 0 9.591 4.41 9.591 9.827 0 4.341-2.74 8.027-6.549 9.334l-.052.014c-.263.052-.514.025-.721-.107zm.546-.675l.609-.236c3.15-1.373 5.367-4.579 5.367-8.33 0-4.994-3.95-9.028-8.79-9.028-4.84 0-8.783 4.033-8.783 9.028 0 3.75 2.219 6.96 5.369 8.33l.606.234h.112l.023-.064c0-.173-.007-.532-.011-1.042l-.014-.086c-2.12.258-2.856-1.101-3.027-1.51l-.032-.084c-.376-.985-.895-1.205-.817-1.166l-.056-.032a1.624 1.624 0 01-.417-.392c-.274-.41-.014-.729.265-.838.206-.078.456-.07.466-.07 1.167.081 1.742 1.193 1.735 1.178.486.851 1.177.9 1.7.774l.28-.1.05-.233c.044-.149.097-.287.168-.426l-.153-.03c-1.9-.401-3.721-1.533-3.721-4.935 0-.847.222-1.586.608-2.21l.292-.39-.04-.144c-.12-.493-.209-1.361.2-2.428a.401.4 0 01.25-.237c.134-.045.84-.2 2.236.61l.494.315.999-.206c.403-.054.81-.082 1.217-.085.409.003.818.03 1.223.085l1 .206.491-.313c1.395-.811 2.104-.655 2.239-.612a.397.397 0 01.248.237c.41 1.066.322 1.934.202 2.43l-.041.142.293.39a4.13 4.13 0 01.61 2.21c0 3.424-1.84 4.536-3.74 4.928l-.16.025.11.21c.137.343.217.758.217 1.243 0 1.26-.01 2.277-.01 2.586l.018.067h.115z"/><path d="M0 23.262V2.338A2.34 2.34 0 012.338 0h20.924A2.341 2.34 0 0125.6 2.338v20.924a2.34 2.34 0 01-2.338 2.338H2.338A2.34 2.338 0 010 23.262zm24.8 0V2.338A1.542 1.541 0 0023.262.8H2.338A1.541 1.54 0 00.8 2.338v20.924A1.54 1.54 0 002.338 24.8h20.924a1.541 1.54 0 001.538-1.538z"/></g></symbol><symbol id="icon-linkedin" viewBox="0 0 25.6 25.6"><g overflow="visible" fill-rule="evenodd" stroke-width=".501" stroke-linejoin="bevel"><script/><script/><path d="M4.765 19.611V9.341c0-.219.18-.399.4-.399h3.337c.22 0 .4.18.4.4v10.27a.401.4 0 01-.4.4H5.166a.4.4 0 01-.4-.4zm3.337-.4V9.74H5.566v9.47h2.536zM4.57 6.165c0-1.24.934-2.173 2.287-2.173 1.36 0 2.238.942 2.266 2.169 0 1.216-.91 2.18-2.306 2.18-1.345 0-2.247-.97-2.247-2.176zm3.753.005c-.019-.79-.546-1.378-1.466-1.378-.933 0-1.487.596-1.487 1.373 0 .764.545 1.375 1.46 1.375.952 0 1.493-.616 1.493-1.37zm2.08 13.441c0-.01.042-9.217 0-10.157a.401.4 0 01.4-.42h3.407c.22 0 .4.18.4.4v.338l.18-.16c.564-.456 1.356-.817 2.492-.817 2.487 0 4.324 1.664 4.324 4.98v5.837a.401.4 0 01-.4.4h-3.41a.4.4 0 01-.4-.4v-5.444c0-1.234-.38-1.901-1.325-1.901-.726 0-1.171.476-1.378.99-.058.139-.083.37-.083.673v5.682a.401.4 0 01-.4.4h-3.407a.4.4 0 01-.4-.4zm3.407-.399V13.93c0-.306.02-.682.144-.977.281-.704.962-1.486 2.117-1.486 1.566 0 2.126 1.263 2.126 2.701v5.044h2.608v-5.436c0-2.926-1.523-4.18-3.523-4.18-.934 0-1.558.287-1.996.644l-.38.37-.326.448a.405.405 0 01-.387.252.402.402 0 01-.406-.434l.023-.098v-.943h-2.6l.001.059c.022 1.773.001 7.275-.008 9.115v.203h2.607z"/><path d="M0 23.262V2.338A2.34 2.34 0 012.338 0h20.924A2.341 2.34 0 0125.6 2.338v20.924a2.34 2.34 0 01-2.338 2.338H2.338A2.34 2.338 0 010 23.262zm24.8 0V2.338A1.542 1.541 0 0023.262.8H2.338A1.541 1.54 0 00.8 2.338v20.924A1.54 1.54 0 002.338 24.8h20.924a1.541 1.54 0 001.538-1.538z"/></g></symbol><symbol id="icon-logo" viewBox="0 0 1032 850"><style>.shp0{fill:#000}</style><g id="Layer 1"><g id="&lt;Group&gt;"><path id="&lt;Compound Path&gt;" fill-rule="evenodd" class="shp0" d="M-153.27 1157.32h-49.12l-9.37 22.67h-25.09l47.16-105.81h24.18l47.31 105.81h-25.69l-9.38-22.67zm-7.7-18.6l-16.78-40.51-16.78 40.51h33.56zm226.22-64.54v105.81H45.14l-52.75-64.24v64.24h-24.18v-105.81h20.25l52.6 64.24v-64.24h24.19zm170.14 83.14h-49.12l-9.38 22.67H151.8l47.16-105.81h24.19l47.31 105.81h-25.7l-9.37-22.67zm-7.71-18.6l-16.78-40.51-16.77 40.51h33.55zm120.87 30.84l8.31-18.42c8.92 6.48 22.22 11.01 34.92 11.01 14.51 0 20.41-4.83 20.41-11.31 0-19.8-61.52-6.2-61.52-45.5 0-18.01 14.51-32.97 44.59-32.97 13.3 0 26.9 3.17 36.73 9.37l-7.56 18.59c-9.83-5.59-19.95-8.31-29.32-8.31-14.51 0-20.11 5.44-20.11 12.11 0 19.53 61.52 6.05 61.52 44.9 0 17.66-14.66 32.77-44.89 32.77-16.78 0-33.71-4.99-43.08-12.24zm200.53-75.43h-33.86v-19.95h92.2v19.95h-33.86v85.86h-24.48v-85.86zm211.25 63.19h-49.12l-9.37 22.67h-25.1l47.16-105.81h24.19l47.31 105.81h-25.7l-9.37-22.67zm-7.71-18.6l-16.77-40.51-16.78 40.51h33.55zm120.87 30.84l8.31-18.42c8.92 6.48 22.22 11.01 34.92 11.01 14.51 0 20.41-4.83 20.41-11.31 0-19.8-61.52-6.2-61.52-45.5 0-18.01 14.51-32.97 44.59-32.97 13.3 0 26.9 3.17 36.73 9.37l-7.56 18.59c-9.82-5.59-19.95-8.31-29.32-8.31-14.51 0-20.11 5.44-20.11 12.11 0 19.53 61.52 6.05 61.52 44.9 0 17.66-14.66 32.77-44.89 32.77-16.78 0-33.71-4.99-43.08-12.24zm180.12-95.38h24.49v105.81h-24.49v-105.81zm194.63 83.14h-49.12l-9.38 22.67h-25.09l47.16-105.81H1236l47.31 105.81h-25.7l-9.37-22.67zm-7.71-18.6l-16.78-40.51-16.77 40.51h33.55z"/><path id="&lt;Path&gt;" class="shp0" d="M223.65 413.18c6.49 0 11.75 5.26 11.75 11.76 0 6.49-5.26 11.75-11.75 11.75-58.4 0-111.27-23.67-149.54-61.94-38.27-38.27-61.94-91.14-61.94-149.53 0-58.4 23.67-111.27 61.94-149.54 38.27-38.27 91.14-61.94 149.54-61.94 6.49 0 11.75 5.27 11.75 11.76s-5.26 11.76-11.75 11.76c-51.91 0-98.9 21.03-132.91 55.05-34.02 34.01-55.06 81-55.06 132.91 0 51.9 21.04 98.89 55.06 132.91 34.01 34.01 81 55.05 132.91 55.05z"/><path id="&lt;Path&gt;" class="shp0" d="M34.4 829.61c-2.89 5.78-9.93 8.13-15.71 5.24-5.78-2.89-8.12-9.93-5.23-15.71L412.89 20.26c2.89-5.78 9.93-8.12 15.71-5.23 2.36 1.18 4.15 3.05 5.24 5.24l399.43 798.87c2.89 5.78.55 12.82-5.23 15.71-5.78 2.89-12.82.54-15.71-5.24L423.36 51.68 34.4 829.61z"/><path id="&lt;Path&gt;" class="shp0" d="M223.65 436.7c-6.5 0-11.76-5.27-11.76-11.76s5.26-11.76 11.76-11.76H822.8c6.5 0 11.76 5.27 11.76 11.76s-5.26 11.76-11.76 11.76H223.65z"/><path id="&lt;Path&gt;" class="shp0" d="M834.56 824.37c0 6.5-5.26 11.76-11.76 11.76-6.49 0-11.75-5.26-11.75-11.76V25.5c0-6.49 5.26-11.76 11.75-11.76 6.5 0 11.76 5.27 11.76 11.76v798.87zm-399.44 0c0 6.5-5.26 11.76-11.75 11.76-6.5 0-11.76-5.26-11.76-11.76V25.5c0-6.49 5.26-11.76 11.76-11.76 6.49 0 11.75 5.27 11.75 11.76v798.87z"/><path id="&lt;Path&gt;" class="shp0" d="M822.8 836.13c-6.49 0-11.75-5.26-11.75-11.76 0-6.49 5.26-11.75 11.75-11.75 51.91 0 98.9-21.04 132.91-55.05 34.02-34.02 55.06-81.01 55.06-132.91 0-51.91-21.04-98.9-55.06-132.91-34.01-34.02-81-55.06-132.91-55.06-6.49 0-11.75-5.26-11.75-11.75 0-6.5 5.26-11.76 11.75-11.76 58.4 0 111.27 23.67 149.54 61.94 38.27 38.27 61.94 91.14 61.94 149.54 0 58.39-23.67 111.26-61.94 149.53-38.27 38.27-91.14 61.94-149.54 61.94zM213.21 37.26c-6.49 0-11.76-5.27-11.76-11.76s5.27-11.76 11.76-11.76H822.8c6.5 0 11.76 5.27 11.76 11.76s-5.26 11.76-11.76 11.76H213.21z"/><path id="&lt;Path&gt;" class="shp0" d="M23.93 836.13c-6.5 0-11.76-5.26-11.76-11.75 0-6.5 5.26-11.76 11.76-11.76H822.8c6.5 0 11.76 5.26 11.76 11.76 0 6.49-5.26 11.75-11.76 11.75H23.93z"/></g></g></symbol><symbol id="icon-menu" viewBox="0 -53 384 384"><path d="M368 154.668H16c-8.832 0-16-7.168-16-16s7.168-16 16-16h352c8.832 0 16 7.168 16 16s-7.168 16-16 16zM368 32H16C7.168 32 0 24.832 0 16S7.168 0 16 0h352c8.832 0 16 7.168 16 16s-7.168 16-16 16zm0 245.332H16c-8.832 0-16-7.168-16-16s7.168-16 16-16h352c8.832 0 16 7.168 16 16s-7.168 16-16 16zm0 0"/></symbol><symbol id="icon-vk" viewBox="0 0 25.6 25.6"><g overflow="visible" fill-rule="evenodd" stroke-width=".501" stroke-linejoin="bevel"><script/><script/><path d="M16.9 18.631l-1.59-2.011a1.102 1.101 0 00-.21-.205l-.057-.032-.023.054-.363 1.62-.06.334c-.103.346-.327.7-.783.788l-.28.018h-1.84c-3.273 0-6.227-4.661-8.295-10.468l-.015-.054c-.07-.349-.106-.736.065-1.048.196-.359.571-.474.965-.486l2.828.02c.175 0 .33.114.38.282.635 2.09 1.416 3.367 2.37 4.823l.027.047c.104.217.32.156.432-.017l.069-.202v-3.28c0-.482-.219-.55-.752-.626a.4.4 0 01-.324-.517c.256-.815 1.1-1.232 2.27-1.232l1.079-.026c.872 0 1.662.375 1.662 1.49v4.316l.077.042c.143.051.424.061.651-.295.98-1.383 2.11-3.034 2.269-3.897a.407.407 0 01.032-.1c.199-.42.744-.715.964-.782a.558.558 0 01.165-.028l2.945.002.182.002a.97.97 0 01.204.048c.177.064.302.18.384.312.16.263.139.557.154.674a.38.38 0 010 .12c-.275 1.729-2.263 3.666-3.098 4.923-.214.296-.218.516-.018.759l2.772 3.47c.32.457.303.957-.037 1.315-.222.234-.544.364-.884.404l-.32.009h-2.946l.052-.003c-.387.05-.688-.11-.914-.336l-.188-.227zm1.05-.234h2.966c.311.02.522-.077.605-.165.029-.029.068-.077.03-.18l-.064-.117-2.743-3.432c-.47-.573-.394-1.2-.018-1.718.794-1.196 2.5-2.905 2.903-4.316l.054-.24-.014-.153-.02-.117h-2.985l-.094.045c-.09.05-.2.128-.28.203l-.08.1-.099.354c-.341.955-1.195 2.23-1.924 3.269l-.351.495-.222.273c-.59.573-1.459.468-1.814-.01a.71.71 0 01-.145-.424v-4.36c0-.517-.235-.69-.853-.69l-1.079.025c-.519 0-.874.089-1.11.217l-.131.085.093.033c.394.176.745.52.745 1.24l-.003 3.332c-.077 1.04-1.348 1.499-1.917.69l-.077-.131c-.849-1.294-1.59-2.491-2.21-4.243l-.165-.504-2.527-.016c-.26.006-.275.077-.27.07-.018.03-.038.11-.02.291l.032.188.395 1.065c2.065 5.35 4.681 8.841 7.135 8.841h1.857c.252.013.307-.267.32-.457l.009-.057.369-1.653.01-.04a.998.998 0 01.253-.416.724.724 0 01.605-.198c.316.042.592.267.817.54l1.608 2.037c.165.237.274.259.356.248l.053-.004z"/><path d="M0 23.262V2.338A2.34 2.34 0 012.338 0h20.924A2.341 2.34 0 0125.6 2.338v20.924a2.34 2.34 0 01-2.338 2.338H2.338A2.34 2.338 0 010 23.262zm24.8 0V2.338A1.542 1.541 0 0023.262.8H2.338A1.541 1.54 0 00.8 2.338v20.924A1.54 1.54 0 002.338 24.8h20.924a1.541 1.54 0 001.538-1.538z"/></g></symbol></svg>